<svg width="38" height="39" viewBox="0 0 38 39" fill="none" xmlns="http://www.w3.org/2000/svg">
<path d="M33.0348 17.0137L34.6824 18.6613C35.3801 19.359 35.3801 20.4871 34.6824 21.1773L20.2617 35.6055C19.5641 36.3031 18.4359 36.3031 17.7457 35.6055L3.31758 21.1773C2.61993 20.4797 2.61993 19.3516 3.31758 18.6613L4.96524 17.0137C5.67032 16.3086 6.82071 16.3234 7.51094 17.0434L16.0313 25.9867V4.65625C16.0313 3.66914 16.8254 2.875 17.8125 2.875H20.1875C21.1746 2.875 21.9688 3.66914 21.9688 4.65625V25.9867L30.4891 17.0434C31.1793 16.316 32.3297 16.3012 33.0348 17.0137Z" fill="white"/>
</svg>
