<svg width="17" height="17" viewBox="0 0 17 17" fill="none" xmlns="http://www.w3.org/2000/svg">
<path d="M1.07143 3.43878H15.9286C16.2442 3.43878 16.5 3.14641 16.5 2.78571V1.15306C16.5 0.792367 16.2442 0.5 15.9286 0.5H1.07143C0.755821 0.5 0.5 0.792367 0.5 1.15306V2.78571C0.5 3.14641 0.755821 3.43878 1.07143 3.43878ZM1.07143 9.96939H15.9286C16.2442 9.96939 16.5 9.67702 16.5 9.31633V7.68367C16.5 7.32298 16.2442 7.03061 15.9286 7.03061H1.07143C0.755821 7.03061 0.5 7.32298 0.5 7.68367V9.31633C0.5 9.67702 0.755821 9.96939 1.07143 9.96939ZM1.07143 16.5H15.9286C16.2442 16.5 16.5 16.2076 16.5 15.8469V14.2143C16.5 13.8536 16.2442 13.5612 15.9286 13.5612H1.07143C0.755821 13.5612 0.5 13.8536 0.5 14.2143V15.8469C0.5 16.2076 0.755821 16.5 1.07143 16.5Z" fill="white"/>
</svg>
